<svg xmlns="http://www.w3.org/2000/svg" version="1.0" width="453.000000pt" height="453.000000pt" viewBox="0 0 453.000000 453.000000" preserveAspectRatio="xMidYMid meet">

<g transform="translate(0.000000,453.000000) scale(0.100000,-0.100000)" fill="#ffffff" stroke="none">
<path d="M2237 4423 c-4 -10 -27 -52 -51 -93 -25 -41 -64 -110 -87 -152 -23 -42 -52 -89 -65 -105 -20 -26 -23 -27 -41 -12 -10 9 -55 37 -100 63 l-83 48 -113 -65 c-62 -36 -128 -74 -147 -85 -19 -11 -123 -70 -230 -132 -197 -114 -686 -396 -750 -432 -165 -94 -160 -91 -160 -123 0 -21 25 -75 71 -156 40 -68 81 -140 91 -159 11 -19 25 -41 30 -47 18 -23 1 -39 -96 -94 l-96 -54 0 -827 0 -828 230 0 229 0 3 -121 c2 -96 6 -124 18 -130 8 -5 71 -42 140 -82 69 -41 157 -92 195 -114 39 -22 147 -84 240 -138 94 -54 206 -118 250 -143 44 -24 85 -48 90 -52 6 -4 30 -19 55 -32 25 -14 74 -42 110 -63 69 -40 142 -81 175 -99 11 -6 22 -14 25 -17 13 -14 104 -59 120 -59 17 0 28 16 88 120 11 19 37 64 57 100 21 36 49 84 63 108 13 24 30 46 38 49 7 2 56 -21 109 -51 53 -31 99 -56 101 -56 6 0 345 194 639 365 164 95 687 397 727 419 55 31 51 55 -36 204 -107 184 -126 219 -126 234 1 7 35 33 78 57 42 24 87 50 100 58 l22 13 0 825 0 825 -232 2 -233 3 -2 25 c0 14 -1 68 -2 121 l-1 97 -142 83 c-175 101 -456 263 -723 417 -110 63 -273 157 -362 208 -163 94 -206 109 -216 77z m166 -196 c94 -57 301 -177 349 -202 21 -11 138 -78 260 -149 123 -71 297 -172 387 -225 l164 -95 -5 -413 c-3 -227 -7 -416 -10 -419 -3 -3 -23 5 -44 17 -54 30 -208 120 -213 125 -6 6 -10 87 -10 269 l-1 180 -78 44 c-42 25 -108 63 -147 86 -38 23 -115 68 -170 100 -55 32 -125 73 -155 90 -30 18 -98 57 -150 88 -237 137 -440 259 -440 265 0 7 137 249 153 270 15 20 33 15 110 -31z m-296 -378 c153 -89 308 -179 345 -201 37 -21 70 -42 73 -48 5 -9 -224 -150 -244 -150 -5 0 -67 34 -136 75 -70 41 -128 75 -130 75 -2 0 -31 16 -64 36 l-60 36 -213 -123 c-240 -138 -239 -137 -478 -273 -96 -55 -240 -137 -319 -182 -80 -46 -148 -81 -152 -79 -4 3 -37 58 -75 122 -37 65 -74 128 -82 140 -17 27 -43 10 393 261 726 418 840 482 852 478 6 -3 136 -78 290 -167z m-91 -399 c74 -43 121 -76 118 -83 -3 -7 -78 -53 -167 -104 -89 -50 -248 -141 -354 -202 -106 -61 -197 -111 -203 -111 -6 0 -10 50 -10 143 0 164 -6 152 100 209 36 19 94 52 130 73 36 20 90 51 120 68 30 16 71 40 90 53 19 13 39 23 44 23 5 1 64 -31 132 -69z m747 16 c51 -30 110 -64 132 -76 117 -65 251 -145 257 -154 11 -16 10 -274 -1 -281 -6 -3 -44 15 -86 40 -42 25 -78 45 -80 45 -1 0 -76 43 -166 96 -90 53 -186 108 -214 123 -121 67 -164 93 -174 105 -9 11 14 28 111 84 68 39 124 71 126 72 2 0 44 -24 95 -54z m-402 -215 c35 -21 156 -91 269 -156 113 -65 222 -128 242 -141 21 -13 40 -24 43 -24 3 0 24 -11 46 -26 22 -14 55 -33 72 -43 18 -10 52 -30 77 -44 l45 -25 3 -504 c3 -574 13 -510 -93 -571 -33 -18 -120 -68 -192 -110 -73 -43 -193 -111 -265 -154 -73 -42 -160 -92 -193 -111 -33 -19 -77 -44 -98 -56 l-38 -20 -52 28 c-51 29 -670 387 -774 449 l-53 31 0 508 0 507 61 36 c33 19 62 35 63 35 2 0 66 37 142 81 77 45 227 132 334 194 107 62 211 122 230 133 19 12 42 22 51 22 8 0 44 -17 80 -39z m1663 -228 c4 -131 5 -447 1 -703 -3 -256 -5 -475 -5 -487 0 -21 -26 -39 -204 -138 -62 -35 -146 -82 -166 -94 -138 -84 -353 -202 -358 -197 -3 4 -7 67 -9 142 -2 117 0 137 15 152 10 9 100 64 200 122 l182 105 0 661 c0 363 3 664 7 667 3 4 79 7 168 7 l162 0 7 -237z m-2756 -14 l3 -145 -103 -59 c-57 -33 -115 -67 -129 -75 -14 -8 -56 -32 -92 -53 l-67 -39 0 -658 c0 -548 -2 -659 -14 -669 -9 -8 -64 -11 -172 -9 l-159 3 -3 714 c-1 509 1 718 9 727 6 7 84 54 172 104 89 49 245 139 347 199 102 60 190 108 195 107 6 -2 11 -61 13 -147z m2 -729 c0 -275 -3 -420 -10 -420 -11 0 -216 114 -237 132 -10 8 -13 79 -13 293 l0 282 23 11 c12 6 45 24 72 40 28 16 70 41 95 56 25 14 51 26 58 26 9 0 12 -91 12 -420z m2160 352 l115 -68 0 -284 0 -285 -119 -68 c-65 -37 -124 -66 -131 -63 -10 3 -13 96 -14 394 -2 387 1 442 23 442 6 0 63 -31 126 -68z m-2281 -863 l121 -71 0 -227 0 -226 38 -21 c32 -17 95 -54 362 -209 90 -53 285 -166 445 -260 83 -48 185 -108 228 -133 43 -25 76 -50 73 -56 -15 -37 -156 -271 -165 -274 -10 -3 -109 52 -456 253 -175 102 -350 203 -385 222 -19 11 -120 69 -223 128 l-189 108 3 406 c1 223 4 412 7 419 2 6 8 12 12 12 4 0 62 -32 129 -71z m411 -238 c74 -43 227 -132 340 -196 113 -65 213 -126 223 -135 18 -17 14 -20 -106 -89 -68 -39 -127 -71 -130 -71 -3 0 -89 50 -192 110 -102 61 -187 110 -190 110 -2 0 -26 14 -54 31 l-51 32 0 143 c0 106 3 144 12 144 7 0 73 -35 148 -79z m1595 -71 l0 -143 -242 -140 -243 -139 -125 72 c-69 40 -125 75 -125 79 0 7 48 36 375 225 105 60 224 129 265 153 41 23 80 41 85 40 6 -2 10 -60 10 -147z m755 -52 c41 -72 75 -137 75 -145 0 -9 -57 -48 -135 -92 -74 -43 -241 -138 -370 -213 -129 -74 -327 -188 -440 -253 -113 -64 -222 -128 -242 -141 -21 -13 -43 -24 -49 -24 -6 0 -144 78 -307 174 -164 95 -323 188 -354 206 -32 17 -58 36 -58 41 0 9 2 11 143 94 116 68 80 75 325 -67 l172 -100 138 80 c175 102 664 382 762 437 41 23 113 65 160 92 47 27 90 48 95 46 6 -2 44 -63 85 -135z" fill="#ffffff"/>
</g>
</svg>